<mxfile host="app.diagrams.net" modified="2023-05-05T03:57:37.302Z" agent="Mozilla/5.0 (Macintosh; Intel Mac OS X 10_15_7) AppleWebKit/537.36 (KHTML, like Gecko) Chrome/112.0.0.0 Safari/537.36" etag="5P5rpK7SKuro-phEPh_s" version="21.2.1" type="github">
  <diagram name="Page-1" id="74e2e168-ea6b-b213-b513-2b3c1d86103e">
    <mxGraphModel dx="2406" dy="758" grid="1" gridSize="10" guides="1" tooltips="1" connect="1" arrows="1" fold="1" page="1" pageScale="1" pageWidth="1100" pageHeight="850" background="none" math="0" shadow="0">
      <root>
        <mxCell id="0" />
        <mxCell id="1" parent="0" />
        <mxCell id="kDdb2OuFdJMwiVJkmWAd-1" value="Loop" style="sketch=0;points=[[0,0,0],[0.25,0,0],[0.5,0,0],[0.75,0,0],[1,0,0],[1,0.25,0],[1,0.5,0],[1,0.75,0],[1,1,0],[0.75,1,0],[0.5,1,0],[0.25,1,0],[0,1,0],[0,0.75,0],[0,0.5,0],[0,0.25,0]];rounded=1;absoluteArcSize=1;arcSize=2;html=1;strokeColor=none;gradientColor=none;shadow=0;dashed=0;fontSize=12;fontColor=#9E9E9E;align=left;verticalAlign=top;spacing=10;spacingTop=-4;whiteSpace=wrap;fillColor=#F1F8E9;" vertex="1" parent="1">
          <mxGeometry x="-30" y="200" width="1160" height="1120" as="geometry" />
        </mxCell>
        <mxCell id="77e6c97f196da883-1" value="组件发布" style="swimlane;html=1;childLayout=stackLayout;startSize=20;rounded=0;shadow=0;labelBackgroundColor=none;strokeWidth=1;fontFamily=Verdana;fontSize=8;align=center;" parent="1" vertex="1">
          <mxGeometry x="70" y="40" width="800" height="1400" as="geometry" />
        </mxCell>
        <mxCell id="77e6c97f196da883-2" value="CI/system" style="swimlane;html=1;startSize=20;" parent="77e6c97f196da883-1" vertex="1">
          <mxGeometry y="20" width="160" height="1380" as="geometry" />
        </mxCell>
        <mxCell id="77e6c97f196da883-9" value="组件拉取" style="rounded=1;whiteSpace=wrap;html=1;shadow=0;labelBackgroundColor=none;strokeWidth=1;fontFamily=Verdana;fontSize=8;align=center;" parent="77e6c97f196da883-2" vertex="1">
          <mxGeometry x="30" y="152" width="100" height="60" as="geometry" />
        </mxCell>
        <mxCell id="77e6c97f196da883-10" value="" style="rounded=1;whiteSpace=wrap;html=1;shadow=0;labelBackgroundColor=none;strokeWidth=1;fontFamily=Verdana;fontSize=8;align=center;" parent="77e6c97f196da883-2" vertex="1">
          <mxGeometry x="30" y="1180" width="100" height="60" as="geometry" />
        </mxCell>
        <mxCell id="kDdb2OuFdJMwiVJkmWAd-3" value="" style="strokeWidth=2;html=1;shape=mxgraph.flowchart.start_2;whiteSpace=wrap;" vertex="1" parent="77e6c97f196da883-2">
          <mxGeometry x="60" y="80" width="40" height="35" as="geometry" />
        </mxCell>
        <mxCell id="77e6c97f196da883-26" style="edgeStyle=orthogonalEdgeStyle;rounded=1;html=1;labelBackgroundColor=none;startArrow=none;startFill=0;startSize=5;endArrow=classicThin;endFill=1;endSize=5;jettySize=auto;orthogonalLoop=1;strokeWidth=1;fontFamily=Verdana;fontSize=8;exitX=0.5;exitY=1;exitDx=0;exitDy=0;exitPerimeter=0;" parent="77e6c97f196da883-2" source="kDdb2OuFdJMwiVJkmWAd-3" edge="1">
          <mxGeometry relative="1" as="geometry">
            <mxPoint x="120" y="95" as="sourcePoint" />
            <mxPoint x="80" y="140" as="targetPoint" />
          </mxGeometry>
        </mxCell>
        <mxCell id="kDdb2OuFdJMwiVJkmWAd-22" style="edgeStyle=orthogonalEdgeStyle;rounded=1;html=1;labelBackgroundColor=none;startArrow=none;startFill=0;startSize=5;endArrow=classicThin;endFill=1;endSize=5;jettySize=auto;orthogonalLoop=1;strokeWidth=1;fontFamily=Verdana;fontSize=8;entryX=0.5;entryY=0;entryDx=0;entryDy=0;" edge="1" parent="77e6c97f196da883-2" target="kDdb2OuFdJMwiVJkmWAd-4">
          <mxGeometry relative="1" as="geometry">
            <mxPoint x="82" y="212" as="sourcePoint" />
            <mxPoint x="170" y="212" as="targetPoint" />
          </mxGeometry>
        </mxCell>
        <mxCell id="77e6c97f196da883-39" style="edgeStyle=orthogonalEdgeStyle;rounded=1;html=1;labelBackgroundColor=none;startArrow=none;startFill=0;startSize=5;endArrow=classicThin;endFill=1;endSize=5;jettySize=auto;orthogonalLoop=1;strokeWidth=1;fontFamily=Verdana;fontSize=8" parent="77e6c97f196da883-1" source="77e6c97f196da883-20" target="77e6c97f196da883-23" edge="1">
          <mxGeometry relative="1" as="geometry" />
        </mxCell>
        <mxCell id="77e6c97f196da883-3" value="conveyor-uploader" style="swimlane;html=1;startSize=20;" parent="77e6c97f196da883-1" vertex="1">
          <mxGeometry x="160" y="20" width="160" height="1380" as="geometry" />
        </mxCell>
        <mxCell id="kDdb2OuFdJMwiVJkmWAd-6" value="上传tar.gz" style="rounded=1;whiteSpace=wrap;html=1;shadow=0;labelBackgroundColor=none;strokeWidth=1;fontFamily=Verdana;fontSize=8;align=center;" vertex="1" parent="77e6c97f196da883-3">
          <mxGeometry x="20" y="321" width="100" height="60" as="geometry" />
        </mxCell>
        <mxCell id="kDdb2OuFdJMwiVJkmWAd-7" value="上传成功" style="rhombus;whiteSpace=wrap;html=1;rounded=0;shadow=0;labelBackgroundColor=none;strokeWidth=1;fontFamily=Verdana;fontSize=8;align=center;" vertex="1" parent="77e6c97f196da883-3">
          <mxGeometry x="30" y="394" width="80" height="60" as="geometry" />
        </mxCell>
        <mxCell id="kDdb2OuFdJMwiVJkmWAd-8" value="上传yaml" style="rounded=1;whiteSpace=wrap;html=1;shadow=0;labelBackgroundColor=none;strokeWidth=1;fontFamily=Verdana;fontSize=8;align=center;" vertex="1" parent="77e6c97f196da883-3">
          <mxGeometry x="20" y="468" width="100" height="60" as="geometry" />
        </mxCell>
        <mxCell id="kDdb2OuFdJMwiVJkmWAd-9" style="edgeStyle=orthogonalEdgeStyle;rounded=1;html=1;labelBackgroundColor=none;startArrow=none;startFill=0;startSize=5;endArrow=classicThin;endFill=1;endSize=5;jettySize=auto;orthogonalLoop=1;strokeColor=#000000;strokeWidth=1;fontFamily=Verdana;fontSize=8;fontColor=#000000;" edge="1" parent="77e6c97f196da883-3" source="kDdb2OuFdJMwiVJkmWAd-6">
          <mxGeometry relative="1" as="geometry">
            <mxPoint x="70" y="388" as="targetPoint" />
          </mxGeometry>
        </mxCell>
        <mxCell id="kDdb2OuFdJMwiVJkmWAd-12" style="edgeStyle=orthogonalEdgeStyle;rounded=1;html=1;labelBackgroundColor=none;startArrow=none;startFill=0;startSize=5;endArrow=classicThin;endFill=1;endSize=5;jettySize=auto;orthogonalLoop=1;strokeWidth=1;fontFamily=Verdana;fontSize=8;entryX=0.5;entryY=0;entryDx=0;entryDy=0;" edge="1" parent="77e6c97f196da883-3" target="kDdb2OuFdJMwiVJkmWAd-8">
          <mxGeometry relative="1" as="geometry">
            <mxPoint x="70" y="450" as="sourcePoint" />
            <mxPoint x="130" y="400" as="targetPoint" />
          </mxGeometry>
        </mxCell>
        <mxCell id="kDdb2OuFdJMwiVJkmWAd-24" style="edgeStyle=orthogonalEdgeStyle;rounded=1;html=1;labelBackgroundColor=none;startArrow=none;startFill=0;startSize=5;endArrow=classicThin;endFill=1;endSize=5;jettySize=auto;orthogonalLoop=1;strokeWidth=1;fontFamily=Verdana;fontSize=8;entryX=0.5;entryY=0;entryDx=0;entryDy=0;" edge="1" parent="77e6c97f196da883-3" target="kDdb2OuFdJMwiVJkmWAd-13">
          <mxGeometry relative="1" as="geometry">
            <mxPoint x="70" y="528" as="sourcePoint" />
            <mxPoint x="140" y="528" as="targetPoint" />
          </mxGeometry>
        </mxCell>
        <mxCell id="77e6c97f196da883-4" value="Nexus" style="swimlane;html=1;startSize=20;" parent="77e6c97f196da883-1" vertex="1">
          <mxGeometry x="320" y="20" width="160" height="1380" as="geometry" />
        </mxCell>
        <mxCell id="77e6c97f196da883-12" value="文件上传接口" style="rounded=1;whiteSpace=wrap;html=1;shadow=0;labelBackgroundColor=none;strokeWidth=1;fontFamily=Verdana;fontSize=8;align=center;" parent="77e6c97f196da883-4" vertex="1">
          <mxGeometry x="30" y="261" width="100" height="60" as="geometry" />
        </mxCell>
        <mxCell id="kDdb2OuFdJMwiVJkmWAd-16" value="文件上传接口" style="rounded=1;whiteSpace=wrap;html=1;shadow=0;labelBackgroundColor=none;strokeWidth=1;fontFamily=Verdana;fontSize=8;align=center;" vertex="1" parent="77e6c97f196da883-4">
          <mxGeometry x="20" y="811" width="100" height="60" as="geometry" />
        </mxCell>
        <mxCell id="77e6c97f196da883-5" value="FC/transfer-server" style="swimlane;html=1;startSize=20;" parent="77e6c97f196da883-1" vertex="1">
          <mxGeometry x="480" y="20" width="160" height="1380" as="geometry" />
        </mxCell>
        <mxCell id="77e6c97f196da883-20" value="" style="rhombus;whiteSpace=wrap;html=1;rounded=0;shadow=0;labelBackgroundColor=none;strokeWidth=1;fontFamily=Verdana;fontSize=8;align=center;" parent="77e6c97f196da883-5" vertex="1">
          <mxGeometry x="40" y="1260" width="80" height="60" as="geometry" />
        </mxCell>
        <mxCell id="kDdb2OuFdJMwiVJkmWAd-26" value="生成JSON文件" style="rounded=1;whiteSpace=wrap;html=1;shadow=0;labelBackgroundColor=none;strokeWidth=1;fontFamily=Verdana;fontSize=8;align=center;" vertex="1" parent="77e6c97f196da883-5">
          <mxGeometry x="30" y="710" width="100" height="60" as="geometry" />
        </mxCell>
        <mxCell id="kDdb2OuFdJMwiVJkmWAd-39" value="组件meta同步" style="rounded=1;whiteSpace=wrap;html=1;shadow=0;labelBackgroundColor=none;strokeWidth=1;fontFamily=Verdana;fontSize=8;align=center;" vertex="1" parent="77e6c97f196da883-5">
          <mxGeometry x="30" y="1180" width="100" height="60" as="geometry" />
        </mxCell>
        <mxCell id="kDdb2OuFdJMwiVJkmWAd-21" style="edgeStyle=orthogonalEdgeStyle;rounded=1;html=1;labelBackgroundColor=none;startArrow=none;startFill=0;startSize=5;endArrow=classicThin;endFill=1;endSize=5;jettySize=auto;orthogonalLoop=1;strokeWidth=1;fontFamily=Verdana;fontSize=8;entryX=0.5;entryY=0;entryDx=0;entryDy=0;" edge="1" parent="77e6c97f196da883-5" target="kDdb2OuFdJMwiVJkmWAd-16">
          <mxGeometry relative="1" as="geometry">
            <mxPoint x="80" y="770" as="sourcePoint" />
            <mxPoint x="150" y="770" as="targetPoint" />
            <Array as="points">
              <mxPoint x="80" y="780" />
              <mxPoint x="-90" y="780" />
            </Array>
          </mxGeometry>
        </mxCell>
        <mxCell id="kDdb2OuFdJMwiVJkmWAd-44" style="edgeStyle=orthogonalEdgeStyle;rounded=1;html=1;labelBackgroundColor=none;startArrow=none;startFill=0;startSize=5;endArrow=classicThin;endFill=1;endSize=5;jettySize=auto;orthogonalLoop=1;strokeWidth=1;fontFamily=Verdana;fontSize=8;entryX=0.5;entryY=0;entryDx=0;entryDy=0;" edge="1" parent="77e6c97f196da883-5" target="kDdb2OuFdJMwiVJkmWAd-15">
          <mxGeometry relative="1" as="geometry">
            <mxPoint x="80" y="770" as="sourcePoint" />
            <mxPoint x="150" y="770" as="targetPoint" />
            <Array as="points">
              <mxPoint x="80" y="780" />
              <mxPoint x="250" y="780" />
            </Array>
          </mxGeometry>
        </mxCell>
        <mxCell id="77e6c97f196da883-6" value="云端/conveyor-server" style="swimlane;html=1;startSize=20;" parent="77e6c97f196da883-1" vertex="1">
          <mxGeometry x="640" y="20" width="160" height="1380" as="geometry" />
        </mxCell>
        <mxCell id="77e6c97f196da883-23" value="" style="rounded=1;whiteSpace=wrap;html=1;shadow=0;labelBackgroundColor=none;strokeWidth=1;fontFamily=Verdana;fontSize=8;align=center;" parent="77e6c97f196da883-6" vertex="1">
          <mxGeometry x="30" y="1260" width="100" height="60" as="geometry" />
        </mxCell>
        <mxCell id="kDdb2OuFdJMwiVJkmWAd-4" value="组件上传" style="rounded=1;whiteSpace=wrap;html=1;shadow=0;labelBackgroundColor=none;strokeWidth=1;fontFamily=Verdana;fontSize=8;align=center;" vertex="1" parent="1">
          <mxGeometry x="102" y="290" width="100" height="60" as="geometry" />
        </mxCell>
        <mxCell id="kDdb2OuFdJMwiVJkmWAd-13" value="上传成功" style="rhombus;whiteSpace=wrap;html=1;rounded=0;shadow=0;labelBackgroundColor=none;strokeWidth=1;fontFamily=Verdana;fontSize=8;align=center;" vertex="1" parent="1">
          <mxGeometry x="260" y="603" width="80" height="60" as="geometry" />
        </mxCell>
        <mxCell id="kDdb2OuFdJMwiVJkmWAd-30" style="edgeStyle=orthogonalEdgeStyle;rounded=0;orthogonalLoop=1;jettySize=auto;html=1;" edge="1" parent="1" source="kDdb2OuFdJMwiVJkmWAd-14" target="kDdb2OuFdJMwiVJkmWAd-26">
          <mxGeometry relative="1" as="geometry" />
        </mxCell>
        <mxCell id="kDdb2OuFdJMwiVJkmWAd-14" value="成功上传回调&lt;br&gt;接口" style="rounded=1;whiteSpace=wrap;html=1;shadow=0;labelBackgroundColor=none;strokeWidth=1;fontFamily=Verdana;fontSize=8;align=center;" vertex="1" parent="1">
          <mxGeometry x="580" y="692" width="100" height="60" as="geometry" />
        </mxCell>
        <mxCell id="kDdb2OuFdJMwiVJkmWAd-15" value="组件meta信息&lt;br&gt;更新" style="rounded=1;whiteSpace=wrap;html=1;shadow=0;labelBackgroundColor=none;strokeWidth=1;fontFamily=Verdana;fontSize=8;align=center;" vertex="1" parent="1">
          <mxGeometry x="750" y="870" width="100" height="60" as="geometry" />
        </mxCell>
        <mxCell id="kDdb2OuFdJMwiVJkmWAd-23" style="edgeStyle=orthogonalEdgeStyle;rounded=1;html=1;labelBackgroundColor=none;startArrow=none;startFill=0;startSize=5;endArrow=classicThin;endFill=1;endSize=5;jettySize=auto;orthogonalLoop=1;strokeWidth=1;fontFamily=Verdana;fontSize=8;exitX=0.5;exitY=1;exitDx=0;exitDy=0;" edge="1" parent="1" source="kDdb2OuFdJMwiVJkmWAd-4" target="kDdb2OuFdJMwiVJkmWAd-6">
          <mxGeometry relative="1" as="geometry">
            <mxPoint x="150" y="355" as="sourcePoint" />
            <mxPoint x="220" y="355" as="targetPoint" />
            <Array as="points">
              <mxPoint x="150" y="350" />
              <mxPoint x="150" y="370" />
              <mxPoint x="300" y="370" />
            </Array>
          </mxGeometry>
        </mxCell>
        <mxCell id="kDdb2OuFdJMwiVJkmWAd-25" style="edgeStyle=orthogonalEdgeStyle;rounded=1;html=1;labelBackgroundColor=none;startArrow=none;startFill=0;startSize=5;endArrow=classicThin;endFill=1;endSize=5;jettySize=auto;orthogonalLoop=1;strokeWidth=1;fontFamily=Verdana;fontSize=8" edge="1" parent="1" target="kDdb2OuFdJMwiVJkmWAd-14">
          <mxGeometry relative="1" as="geometry">
            <mxPoint x="300" y="663" as="sourcePoint" />
            <mxPoint x="370" y="663" as="targetPoint" />
            <Array as="points">
              <mxPoint x="300" y="680" />
              <mxPoint x="630" y="680" />
            </Array>
          </mxGeometry>
        </mxCell>
        <mxCell id="kDdb2OuFdJMwiVJkmWAd-33" value="文件列表" style="text;strokeColor=none;align=center;fillColor=none;html=1;verticalAlign=middle;whiteSpace=wrap;rounded=0;" vertex="1" parent="1">
          <mxGeometry x="471" y="649" width="60" height="30" as="geometry" />
        </mxCell>
        <mxCell id="kDdb2OuFdJMwiVJkmWAd-34" value="JOSN成功" style="rhombus;whiteSpace=wrap;html=1;rounded=0;shadow=0;labelBackgroundColor=none;strokeWidth=1;fontFamily=Verdana;fontSize=8;align=center;" vertex="1" parent="1">
          <mxGeometry x="590" y="987" width="80" height="60" as="geometry" />
        </mxCell>
        <mxCell id="kDdb2OuFdJMwiVJkmWAd-42" style="edgeStyle=orthogonalEdgeStyle;rounded=0;orthogonalLoop=1;jettySize=auto;html=1;" edge="1" parent="1" source="kDdb2OuFdJMwiVJkmWAd-36" target="kDdb2OuFdJMwiVJkmWAd-38">
          <mxGeometry relative="1" as="geometry" />
        </mxCell>
        <mxCell id="kDdb2OuFdJMwiVJkmWAd-36" value="生成Lock文件" style="rounded=1;whiteSpace=wrap;html=1;shadow=0;labelBackgroundColor=none;strokeWidth=1;fontFamily=Verdana;fontSize=8;align=center;" vertex="1" parent="1">
          <mxGeometry x="580" y="1080" width="100" height="60" as="geometry" />
        </mxCell>
        <mxCell id="kDdb2OuFdJMwiVJkmWAd-43" style="edgeStyle=orthogonalEdgeStyle;rounded=0;orthogonalLoop=1;jettySize=auto;html=1;" edge="1" parent="1" source="kDdb2OuFdJMwiVJkmWAd-38" target="kDdb2OuFdJMwiVJkmWAd-41">
          <mxGeometry relative="1" as="geometry" />
        </mxCell>
        <mxCell id="kDdb2OuFdJMwiVJkmWAd-38" value="上传文件" style="rounded=1;whiteSpace=wrap;html=1;shadow=0;labelBackgroundColor=none;strokeWidth=1;fontFamily=Verdana;fontSize=8;align=center;" vertex="1" parent="1">
          <mxGeometry x="580" y="1160" width="100" height="60" as="geometry" />
        </mxCell>
        <mxCell id="kDdb2OuFdJMwiVJkmWAd-40" value="更新接口" style="rounded=1;whiteSpace=wrap;html=1;shadow=0;labelBackgroundColor=none;strokeWidth=1;fontFamily=Verdana;fontSize=8;align=center;" vertex="1" parent="1">
          <mxGeometry x="740" y="1240" width="100" height="60" as="geometry" />
        </mxCell>
        <mxCell id="kDdb2OuFdJMwiVJkmWAd-41" value="文件上传接口" style="rounded=1;whiteSpace=wrap;html=1;shadow=0;labelBackgroundColor=none;strokeWidth=1;fontFamily=Verdana;fontSize=8;align=center;" vertex="1" parent="1">
          <mxGeometry x="410" y="1160" width="100" height="60" as="geometry" />
        </mxCell>
        <mxCell id="kDdb2OuFdJMwiVJkmWAd-47" style="edgeStyle=orthogonalEdgeStyle;rounded=1;html=1;labelBackgroundColor=none;startArrow=none;startFill=0;startSize=5;endArrow=classicThin;endFill=1;endSize=5;jettySize=auto;orthogonalLoop=1;strokeWidth=1;fontFamily=Verdana;fontSize=8;entryX=0.5;entryY=0;entryDx=0;entryDy=0;" edge="1" parent="1" target="kDdb2OuFdJMwiVJkmWAd-34">
          <mxGeometry relative="1" as="geometry">
            <mxPoint x="800" y="930" as="sourcePoint" />
            <mxPoint x="870" y="930" as="targetPoint" />
            <Array as="points">
              <mxPoint x="800" y="940" />
              <mxPoint x="630" y="940" />
            </Array>
          </mxGeometry>
        </mxCell>
        <mxCell id="kDdb2OuFdJMwiVJkmWAd-49" style="edgeStyle=orthogonalEdgeStyle;rounded=1;html=1;labelBackgroundColor=none;startArrow=none;startFill=0;startSize=5;endArrow=classicThin;endFill=1;endSize=5;jettySize=auto;orthogonalLoop=1;strokeWidth=1;fontFamily=Verdana;fontSize=8" edge="1" parent="1">
          <mxGeometry relative="1" as="geometry">
            <mxPoint x="1040" y="1414" as="sourcePoint" />
            <mxPoint x="1110" y="1414" as="targetPoint" />
          </mxGeometry>
        </mxCell>
        <mxCell id="kDdb2OuFdJMwiVJkmWAd-45" style="edgeStyle=orthogonalEdgeStyle;rounded=1;html=1;labelBackgroundColor=none;startArrow=none;startFill=0;startSize=5;endArrow=classicThin;endFill=1;endSize=5;jettySize=auto;orthogonalLoop=1;strokeWidth=1;fontFamily=Verdana;fontSize=8;entryX=0.5;entryY=0;entryDx=0;entryDy=0;exitX=0.5;exitY=1;exitDx=0;exitDy=0;" edge="1" parent="1" source="kDdb2OuFdJMwiVJkmWAd-16" target="kDdb2OuFdJMwiVJkmWAd-34">
          <mxGeometry relative="1" as="geometry">
            <mxPoint x="450" y="930" as="sourcePoint" />
            <mxPoint x="520" y="930" as="targetPoint" />
            <Array as="points">
              <mxPoint x="460" y="940" />
              <mxPoint x="630" y="940" />
            </Array>
          </mxGeometry>
        </mxCell>
      </root>
    </mxGraphModel>
  </diagram>
</mxfile>
